<svg xmlns="http://www.w3.org/2000/svg" viewBox="0 0 1000 800">
<defs>
<radialGradient id="bgGrad" cx="50%" cy="50%" r="50%"><stop offset="0%" stop-color="#111820"/><stop offset="50%" stop-color="#0a0e14"/><stop offset="100%" stop-color="#06080c"/></radialGradient>
<filter id="nodeGlow" x="-50%" y="-50%" width="200%" height="200%"><feGaussianBlur stdDeviation="6" result="blur"/><feMerge><feMergeNode in="blur"/><feMergeNode in="SourceGraphic"/></feMerge></filter>
<filter id="softGlow" x="-50%" y="-50%" width="200%" height="200%"><feGaussianBlur stdDeviation="12"/></filter>
<filter id="churnPulse" x="-50%" y="-50%" width="200%" height="200%"><feGaussianBlur stdDeviation="4" result="blur"/><feMerge><feMergeNode in="blur"/><feMergeNode in="SourceGraphic"/></feMerge></filter>
</defs>
<rect width="1000" height="800" fill="url(#bgGrad)"/>
<circle cx="754.5" cy="376.1" r="0.5" fill="#c9d1d9" opacity="0.4"/>
<circle cx="243.1" cy="695.0" r="0.7" fill="#c9d1d9" opacity="0.4"/>
<circle cx="383.9" cy="572.7" r="0.9" fill="#c9d1d9" opacity="0.4"/>
<circle cx="736.3" cy="545.0" r="1.0" fill="#c9d1d9" opacity="0.1"/>
<circle cx="938.7" cy="27.1" r="0.5" fill="#c9d1d9" opacity="0.3"/>
<circle cx="98.5" cy="457.1" r="0.4" fill="#c9d1d9" opacity="0.2"/>
<circle cx="300.1" cy="514.0" r="1.0" fill="#c9d1d9" opacity="0.3"/>
<circle cx="787.0" cy="607.7" r="1.0" fill="#c9d1d9" opacity="0.4"/>
<circle cx="892.8" cy="390.6" r="1.2" fill="#c9d1d9" opacity="0.4"/>
<circle cx="975.2" cy="298.6" r="1.2" fill="#c9d1d9" opacity="0.1"/>
<circle cx="908.0" cy="479.9" r="0.6" fill="#c9d1d9" opacity="0.2"/>
<circle cx="571.3" cy="270.5" r="0.5" fill="#c9d1d9" opacity="0.3"/>
<circle cx="106.8" cy="468.9" r="0.6" fill="#c9d1d9" opacity="0.1"/>
<circle cx="75.6" cy="216.2" r="0.6" fill="#c9d1d9" opacity="0.3"/>
<circle cx="963.7" cy="480.7" r="1.0" fill="#c9d1d9" opacity="0.3"/>
<circle cx="424.4" cy="430.7" r="0.3" fill="#c9d1d9" opacity="0.3"/>
<circle cx="92.1" cy="273.6" r="0.6" fill="#c9d1d9" opacity="0.4"/>
<circle cx="677.5" cy="501.0" r="0.8" fill="#c9d1d9" opacity="0.3"/>
<circle cx="464.1" cy="682.3" r="1.0" fill="#c9d1d9" opacity="0.3"/>
<circle cx="812.7" cy="717.3" r="0.6" fill="#c9d1d9" opacity="0.2"/>
<circle cx="857.3" cy="78.5" r="1.0" fill="#c9d1d9" opacity="0.2"/>
<circle cx="872.9" cy="222.8" r="0.7" fill="#c9d1d9" opacity="0.3"/>
<circle cx="505.5" cy="105.2" r="0.4" fill="#c9d1d9" opacity="0.4"/>
<circle cx="78.8" cy="19.6" r="1.1" fill="#c9d1d9" opacity="0.3"/>
<circle cx="404.9" cy="674.5" r="0.7" fill="#c9d1d9" opacity="0.4"/>
<circle cx="77.3" cy="398.6" r="0.3" fill="#c9d1d9" opacity="0.4"/>
<circle cx="372.4" cy="735.5" r="0.8" fill="#c9d1d9" opacity="0.4"/>
<circle cx="329.3" cy="492.6" r="0.6" fill="#c9d1d9" opacity="0.3"/>
<circle cx="610.5" cy="790.7" r="0.8" fill="#c9d1d9" opacity="0.4"/>
<circle cx="203.7" cy="315.7" r="0.8" fill="#c9d1d9" opacity="0.4"/>
<circle cx="826.1" cy="335.3" r="0.6" fill="#c9d1d9" opacity="0.2"/>
<circle cx="752.9" cy="300.6" r="0.8" fill="#c9d1d9" opacity="0.4"/>
<circle cx="775.3" cy="629.7" r="0.6" fill="#c9d1d9" opacity="0.2"/>
<circle cx="699.5" cy="342.0" r="0.4" fill="#c9d1d9" opacity="0.3"/>
<circle cx="266.3" cy="283.7" r="0.6" fill="#c9d1d9" opacity="0.3"/>
<circle cx="680.1" cy="757.3" r="0.5" fill="#c9d1d9" opacity="0.5"/>
<circle cx="341.7" cy="511.6" r="0.7" fill="#c9d1d9" opacity="0.2"/>
<circle cx="990.9" cy="305.2" r="0.8" fill="#c9d1d9" opacity="0.2"/>
<circle cx="763.1" cy="568.4" r="1.0" fill="#c9d1d9" opacity="0.2"/>
<circle cx="654.8" cy="787.1" r="0.8" fill="#c9d1d9" opacity="0.1"/>
<circle cx="558.3" cy="199.8" r="0.6" fill="#c9d1d9" opacity="0.4"/>
<circle cx="649.8" cy="701.9" r="0.9" fill="#c9d1d9" opacity="0.2"/>
<circle cx="240.4" cy="502.7" r="0.7" fill="#c9d1d9" opacity="0.4"/>
<circle cx="384.6" cy="314.9" r="0.5" fill="#c9d1d9" opacity="0.2"/>
<circle cx="111.8" cy="335.8" r="0.5" fill="#c9d1d9" opacity="0.3"/>
<circle cx="229.2" cy="293.7" r="0.4" fill="#c9d1d9" opacity="0.5"/>
<circle cx="828.5" cy="145.2" r="0.9" fill="#c9d1d9" opacity="0.1"/>
<circle cx="780.5" cy="210.0" r="1.2" fill="#c9d1d9" opacity="0.4"/>
<circle cx="161.0" cy="729.7" r="0.7" fill="#c9d1d9" opacity="0.2"/>
<circle cx="669.9" cy="25.3" r="0.4" fill="#c9d1d9" opacity="0.4"/>
<circle cx="114.2" cy="799.8" r="1.1" fill="#c9d1d9" opacity="0.4"/>
<circle cx="0.6" cy="556.5" r="0.8" fill="#c9d1d9" opacity="0.4"/>
<circle cx="719.1" cy="728.9" r="0.6" fill="#c9d1d9" opacity="0.3"/>
<circle cx="43.4" cy="598.3" r="1.2" fill="#c9d1d9" opacity="0.3"/>
<circle cx="36.5" cy="152.5" r="0.7" fill="#c9d1d9" opacity="0.5"/>
<circle cx="686.6" cy="495.9" r="0.5" fill="#c9d1d9" opacity="0.1"/>
<circle cx="630.3" cy="690.6" r="0.6" fill="#c9d1d9" opacity="0.2"/>
<circle cx="106.5" cy="563.7" r="0.5" fill="#c9d1d9" opacity="0.1"/>
<circle cx="692.2" cy="310.5" r="0.6" fill="#c9d1d9" opacity="0.5"/>
<circle cx="112.4" cy="200.7" r="0.7" fill="#c9d1d9" opacity="0.5"/>
<g data-module="Cadmus.plugins">
<circle cx="500.0" cy="333.2" r="62.5" fill="#2ea04355" opacity="0.1" filter="url(#softGlow)"/>
<circle cx="500.0" cy="333.2" r="25.0" fill="none" stroke="#bc8cff" stroke-width="1.5" opacity="0.4" filter="url(#churnPulse)"><animate attributeName="r" values="25.0;29.0;25.0" dur="3s" repeatCount="indefinite"/><animate attributeName="opacity" values="0.4;0.1;0.4" dur="3s" repeatCount="indefinite"/></circle>
<circle cx="501.0" cy="334.2" r="25.0" fill="#000000" opacity="0.3"/>
<circle cx="500.0" cy="333.2" r="25.0" fill="#2ea043" filter="url(#nodeGlow)"/>
<circle cx="500.0" cy="325.7" r="15.0" fill="#56d364" opacity="0.15"/>
<circle cx="496.2" cy="324.4" r="5.0" fill="#ffffff" opacity="0.08"/>
<circle cx="495.5" cy="316.7" r="2.1" fill="#1b1f23" opacity="0.7"/>
<circle cx="501.5" cy="331.1" r="2.6" fill="#1b1f23" opacity="0.7"/>
<circle cx="490.3" cy="328.4" r="2.8" fill="#1b1f23" opacity="0.7"/>
<circle cx="512.3" cy="337.4" r="1.7" fill="#1b1f23" opacity="0.7"/>
<circle cx="492.2" cy="320.3" r="2.3" fill="#1b1f23" opacity="0.7"/>
<circle cx="509.8" cy="336.4" r="2.7" fill="#1b1f23" opacity="0.7"/>
<circle cx="508.3" cy="321.5" r="2.0" fill="#1b1f23" opacity="0.7"/>
<circle cx="493.5" cy="340.5" r="2.8" fill="#1b1f23" opacity="0.7"/>
<text x="500.0" y="333.2" font-family="monospace" font-size="11" font-weight="700" fill="#c9d1d9" text-anchor="middle" dy="0.35em">plugins</text>
<text x="500.0" y="372.2" font-family="monospace" font-size="7" fill="#484f58" text-anchor="middle" dy="0.35em">6476 loc</text>
</g>
<g data-module="Cadmus.resources">
<circle cx="552.3" cy="358.3" r="62.5" fill="#2ea04355" opacity="0.1" filter="url(#softGlow)"/>
<circle cx="552.3" cy="358.3" r="25.0" fill="none" stroke="#bc8cff" stroke-width="1.5" opacity="0.4" filter="url(#churnPulse)"><animate attributeName="r" values="25.0;29.0;25.0" dur="3s" repeatCount="indefinite"/><animate attributeName="opacity" values="0.4;0.1;0.4" dur="3s" repeatCount="indefinite"/></circle>
<circle cx="553.3" cy="359.3" r="25.0" fill="#000000" opacity="0.3"/>
<circle cx="552.3" cy="358.3" r="25.0" fill="#2ea043" filter="url(#nodeGlow)"/>
<circle cx="552.3" cy="350.8" r="15.0" fill="#56d364" opacity="0.15"/>
<circle cx="548.5" cy="349.6" r="5.0" fill="#ffffff" opacity="0.08"/>
<circle cx="543.8" cy="353.6" r="2.8" fill="#1b1f23" opacity="0.7"/>
<circle cx="551.9" cy="358.5" r="2.6" fill="#1b1f23" opacity="0.7"/>
<circle cx="549.3" cy="354.6" r="2.8" fill="#1b1f23" opacity="0.7"/>
<circle cx="558.3" cy="362.8" r="1.6" fill="#1b1f23" opacity="0.7"/>
<circle cx="568.3" cy="358.7" r="3.0" fill="#1b1f23" opacity="0.7"/>
<circle cx="552.9" cy="358.2" r="2.8" fill="#1b1f23" opacity="0.7"/>
<circle cx="536.5" cy="364.9" r="1.5" fill="#1b1f23" opacity="0.7"/>
<circle cx="546.6" cy="350.1" r="1.7" fill="#1b1f23" opacity="0.7"/>
<text x="552.3" y="358.3" font-family="monospace" font-size="11" font-weight="700" fill="#c9d1d9" text-anchor="middle" dy="0.35em">resources</text>
<text x="552.3" y="397.3" font-family="monospace" font-size="7" fill="#484f58" text-anchor="middle" dy="0.35em">6205 loc</text>
</g>
<g data-module="Cadmus.utils">
<circle cx="565.2" cy="414.9" r="62.5" fill="#2ea04355" opacity="0.1" filter="url(#softGlow)"/>
<circle cx="565.2" cy="414.9" r="25.0" fill="none" stroke="#bc8cff" stroke-width="1.5" opacity="0.4" filter="url(#churnPulse)"><animate attributeName="r" values="25.0;29.0;25.0" dur="3s" repeatCount="indefinite"/><animate attributeName="opacity" values="0.4;0.1;0.4" dur="3s" repeatCount="indefinite"/></circle>
<circle cx="566.2" cy="415.9" r="25.0" fill="#000000" opacity="0.3"/>
<circle cx="565.2" cy="414.9" r="25.0" fill="#2ea043" filter="url(#nodeGlow)"/>
<circle cx="565.2" cy="407.4" r="15.0" fill="#56d364" opacity="0.15"/>
<circle cx="561.4" cy="406.1" r="5.0" fill="#ffffff" opacity="0.08"/>
<circle cx="572.7" cy="428.5" r="2.0" fill="#1b1f23" opacity="0.7"/>
<circle cx="575.8" cy="422.5" r="2.7" fill="#1b1f23" opacity="0.7"/>
<circle cx="560.8" cy="414.6" r="2.4" fill="#1b1f23" opacity="0.7"/>
<circle cx="564.6" cy="412.9" r="2.7" fill="#1b1f23" opacity="0.7"/>
<circle cx="564.3" cy="422.8" r="1.7" fill="#1b1f23" opacity="0.7"/>
<circle cx="548.4" cy="411.5" r="2.4" fill="#1b1f23" opacity="0.7"/>
<circle cx="555.0" cy="406.7" r="2.0" fill="#1b1f23" opacity="0.7"/>
<circle cx="573.8" cy="399.9" r="2.3" fill="#1b1f23" opacity="0.7"/>
<text x="565.2" y="414.9" font-family="monospace" font-size="11" font-weight="700" fill="#c9d1d9" text-anchor="middle" dy="0.35em">utils</text>
<text x="565.2" y="453.9" font-family="monospace" font-size="7" fill="#484f58" text-anchor="middle" dy="0.35em">4092 loc</text>
</g>
<g data-module="Cadmus.core">
<circle cx="529.0" cy="460.2" r="62.5" fill="#2ea04355" opacity="0.1" filter="url(#softGlow)"/>
<circle cx="529.0" cy="460.2" r="25.0" fill="none" stroke="#bc8cff" stroke-width="1.5" opacity="0.4" filter="url(#churnPulse)"><animate attributeName="r" values="25.0;29.0;25.0" dur="3s" repeatCount="indefinite"/><animate attributeName="opacity" values="0.4;0.1;0.4" dur="3s" repeatCount="indefinite"/></circle>
<circle cx="530.0" cy="461.2" r="25.0" fill="#000000" opacity="0.3"/>
<circle cx="529.0" cy="460.2" r="25.0" fill="#2ea043" filter="url(#nodeGlow)"/>
<circle cx="529.0" cy="452.7" r="15.0" fill="#56d364" opacity="0.15"/>
<circle cx="525.3" cy="451.5" r="5.0" fill="#ffffff" opacity="0.08"/>
<circle cx="523.6" cy="461.0" r="2.8" fill="#1b1f23" opacity="0.7"/>
<circle cx="542.3" cy="457.9" r="2.6" fill="#1b1f23" opacity="0.7"/>
<circle cx="526.8" cy="458.8" r="2.6" fill="#1b1f23" opacity="0.7"/>
<circle cx="537.6" cy="456.8" r="1.6" fill="#1b1f23" opacity="0.7"/>
<circle cx="523.4" cy="445.6" r="2.2" fill="#1b1f23" opacity="0.7"/>
<circle cx="531.2" cy="468.0" r="2.4" fill="#1b1f23" opacity="0.7"/>
<circle cx="528.9" cy="475.9" r="2.6" fill="#1b1f23" opacity="0.7"/>
<circle cx="527.9" cy="460.1" r="2.2" fill="#1b1f23" opacity="0.7"/>
<text x="529.0" y="460.2" font-family="monospace" font-size="11" font-weight="700" fill="#c9d1d9" text-anchor="middle" dy="0.35em">core</text>
<text x="529.0" y="499.2" font-family="monospace" font-size="7" fill="#484f58" text-anchor="middle" dy="0.35em">3938 loc</text>
</g>
<g data-module="Cadmus.processing">
<circle cx="471.0" cy="460.2" r="62.5" fill="#2ea04355" opacity="0.1" filter="url(#softGlow)"/>
<circle cx="472.0" cy="461.2" r="25.0" fill="#000000" opacity="0.3"/>
<circle cx="471.0" cy="460.2" r="25.0" fill="#2ea043" filter="url(#nodeGlow)"/>
<circle cx="471.0" cy="452.7" r="15.0" fill="#56d364" opacity="0.15"/>
<circle cx="467.2" cy="451.5" r="5.0" fill="#ffffff" opacity="0.08"/>
<circle cx="476.7" cy="461.8" r="2.0" fill="#1b1f23" opacity="0.7"/>
<circle cx="468.5" cy="445.0" r="1.9" fill="#1b1f23" opacity="0.7"/>
<circle cx="458.6" cy="467.2" r="1.9" fill="#1b1f23" opacity="0.7"/>
<circle cx="488.3" cy="462.4" r="1.6" fill="#1b1f23" opacity="0.7"/>
<circle cx="475.2" cy="458.7" r="2.1" fill="#1b1f23" opacity="0.7"/>
<circle cx="466.7" cy="444.2" r="1.5" fill="#1b1f23" opacity="0.7"/>
<circle cx="460.1" cy="463.4" r="2.5" fill="#1b1f23" opacity="0.7"/>
<circle cx="476.7" cy="464.9" r="2.7" fill="#1b1f23" opacity="0.7"/>
<text x="471.0" y="460.2" font-family="monospace" font-size="11" font-weight="700" fill="#c9d1d9" text-anchor="middle" dy="0.35em">processin..</text>
<text x="471.0" y="499.2" font-family="monospace" font-size="7" fill="#484f58" text-anchor="middle" dy="0.35em">1567 loc</text>
</g>
<g data-module="Cadmus.cadmus_plugin">
<circle cx="434.8" cy="414.9" r="62.5" fill="#2ea04355" opacity="0.1" filter="url(#softGlow)"/>
<circle cx="435.8" cy="415.9" r="25.0" fill="#000000" opacity="0.3"/>
<circle cx="434.8" cy="414.9" r="25.0" fill="#2ea043" filter="url(#nodeGlow)"/>
<circle cx="434.8" cy="407.4" r="15.0" fill="#56d364" opacity="0.15"/>
<circle cx="431.1" cy="406.1" r="5.0" fill="#ffffff" opacity="0.08"/>
<circle cx="436.5" cy="409.0" r="2.1" fill="#1b1f23" opacity="0.7"/>
<circle cx="434.3" cy="413.5" r="2.0" fill="#1b1f23" opacity="0.7"/>
<circle cx="430.1" cy="427.5" r="2.9" fill="#1b1f23" opacity="0.7"/>
<circle cx="432.7" cy="427.1" r="2.9" fill="#1b1f23" opacity="0.7"/>
<circle cx="441.0" cy="418.2" r="2.1" fill="#1b1f23" opacity="0.7"/>
<circle cx="446.2" cy="412.2" r="3.0" fill="#1b1f23" opacity="0.7"/>
<circle cx="420.0" cy="413.2" r="2.0" fill="#1b1f23" opacity="0.7"/>
<circle cx="436.4" cy="414.3" r="1.9" fill="#1b1f23" opacity="0.7"/>
<text x="434.8" y="414.9" font-family="monospace" font-size="11" font-weight="700" fill="#c9d1d9" text-anchor="middle" dy="0.35em">cadmus_pl..</text>
<text x="434.8" y="453.9" font-family="monospace" font-size="7" fill="#484f58" text-anchor="middle" dy="0.35em">659 loc</text>
</g>
<g data-module="Cadmus">
<circle cx="447.7" cy="358.3" r="62.5" fill="#2ea04355" opacity="0.1" filter="url(#softGlow)"/>
<circle cx="448.7" cy="359.3" r="25.0" fill="#000000" opacity="0.3"/>
<circle cx="447.7" cy="358.3" r="25.0" fill="#2ea043" filter="url(#nodeGlow)"/>
<circle cx="447.7" cy="350.8" r="15.0" fill="#56d364" opacity="0.15"/>
<circle cx="444.0" cy="349.6" r="5.0" fill="#ffffff" opacity="0.08"/>
<circle cx="453.3" cy="356.0" r="2.0" fill="#1b1f23" opacity="0.7"/>
<text x="447.7" y="358.3" font-family="monospace" font-size="11" font-weight="700" fill="#c9d1d9" text-anchor="middle" dy="0.35em">Cadmus</text>
<text x="447.7" y="397.3" font-family="monospace" font-size="7" fill="#484f58" text-anchor="middle" dy="0.35em">3 loc</text>
</g>
<circle cx="500.0" cy="400.0" r="101.8" fill="none" stroke="#da3633" stroke-width="0.5" stroke-dasharray="4 6" opacity="0.3"><animateTransform attributeName="transform" type="rotate" from="0 500.0 400.0" to="360 500.0 400.0" dur="60s" repeatCount="indefinite"/></circle>
<text x="500.0" y="780.0" font-family="monospace" font-size="9" fill="#30363d" text-anchor="middle" dy="0.35em">7 modules | 22940 lines | 100% healthy 0% moderate 0% complex | 495 dead</text>
<text x="985.0" y="790.0" font-family="monospace" font-size="10" fill="#161b22" text-anchor="end" dy="0.35em">canopy-code</text>
</svg>